<svg version="1.1" id="Layer_1" xmlns="http://www.w3.org/2000/svg" xmlns:xlink="http://www.w3.org/1999/xlink" x="0px" y="0px"
	 width="100%" viewBox="0 0 1024 1024" enable-background="new 0 0 1024 1024" xml:space="preserve">
<path fill="#000000" opacity="1.000000" stroke="none" 
	d="
M20.000000,1025.000000 
	C13.668526,1025.000000 7.337052,1025.000000 1.004183,1025.000000 
	C1.002789,683.768738 1.002789,342.537445 1.002789,1.000000 
	C136.358078,1.000000 271.716400,1.000000 407.534790,1.271767 
	C411.150818,6.118095 414.754669,10.428799 414.008026,16.671835 
	C413.788025,18.511242 415.626495,19.904007 417.365204,20.680086 
	C420.245392,21.965660 423.152405,23.204586 426.104034,24.314337 
	C436.537415,28.237032 447.860809,29.408346 457.906952,34.525471 
	C467.561340,39.443054 477.581177,43.449947 487.694794,47.335106 
	C508.753998,55.425037 530.084961,56.633743 551.891296,51.243118 
	C557.011108,49.977493 561.767822,47.755150 565.333374,43.935307 
	C572.995483,35.726864 582.730347,31.997501 593.348328,29.757557 
	C598.240723,28.725479 603.006409,27.234333 607.260376,24.431461 
	C610.390503,22.369097 611.396912,20.495140 607.952637,17.513861 
	C602.295227,12.616859 602.173157,11.639140 606.277405,5.433959 
	C607.914307,2.959187 607.252869,1.953703 605.000000,1.000000 
	C745.000000,1.000000 885.000000,1.000000 1025.000000,1.001781 
	C1025.000000,2.002385 1025.000000,3.001208 1024.649170,4.577398 
	C1022.659729,5.961942 1020.977234,6.691607 1019.388916,7.587994 
	C998.062012,19.624178 976.597046,31.427029 955.496399,43.848385 
	C945.345886,49.823769 936.041931,49.736057 926.606323,43.051083 
	C914.623901,34.561726 902.016052,27.011551 889.187012,19.975956 
	C880.648315,15.293242 874.071350,6.915846 864.228516,5.177993 
	C854.414246,3.445171 844.282654,4.352299 834.285400,4.378772 
	C831.789185,4.385382 829.279846,4.395834 826.801941,4.650951 
	C825.130920,4.822992 823.515442,5.422732 823.179932,7.495521 
	C822.877869,9.361934 824.109985,10.110910 825.450684,10.937099 
	C831.120239,14.430790 836.660278,18.142578 842.407104,21.501818 
	C864.553345,34.446964 887.235413,46.490143 908.491089,60.929321 
	C913.341431,64.224197 913.451172,65.434593 909.343018,69.710884 
	C906.758850,72.400871 903.630981,74.290085 900.413757,76.052528 
	C844.598511,106.629379 790.248718,139.766205 734.524414,170.528229 
	C674.582581,203.618469 616.047119,239.200897 557.079651,274.004791 
	C549.131592,278.695923 541.967346,279.233521 533.581848,275.088501 
	C515.474182,266.137726 498.358795,255.507156 480.882477,245.467484 
	C430.320618,216.421082 379.329346,188.115463 328.974731,158.717255 
	C291.715088,136.964188 255.078369,114.149765 217.163376,93.509354 
	C192.730606,80.208488 168.208008,67.047844 144.795807,51.964874 
	C143.215088,50.946518 140.975433,50.523544 140.634460,48.146168 
	C141.559174,46.236626 143.460266,45.773956 145.011383,44.895550 
	C164.583084,33.811924 184.194397,22.797945 203.731918,11.654543 
	C206.289352,10.195885 209.542603,9.019646 209.702133,5.241495 
	C207.836868,3.821914 205.934784,4.332129 204.166687,4.322265 
	C194.501205,4.268345 184.825180,4.574899 175.172943,4.215799 
	C168.731491,3.976152 163.088028,4.622312 158.576279,9.974141 
	C156.826233,12.050035 154.037186,13.335524 151.568283,14.704909 
	C141.520050,20.278183 131.068665,25.095951 121.257088,31.129463 
	C117.312729,33.554996 112.901733,33.403271 108.812469,31.190514 
	C95.486542,23.979652 81.833405,17.294718 69.918434,7.749845 
	C67.754349,6.016238 65.460396,5.104457 62.654205,4.902751 
	C49.834312,3.981269 37.001404,4.427158 24.174122,4.342857 
	C23.242058,4.336731 22.111889,4.118838 21.619169,5.379606 
	C21.853432,6.714074 23.038786,7.148284 23.976376,7.779083 
	C41.836933,19.795437 60.675243,30.142704 79.651283,40.243141 
	C82.796249,41.917114 86.202248,43.168442 86.408646,47.407616 
	C86.617882,51.704899 83.309036,53.230652 80.237885,55.033497 
	C56.676979,68.864334 33.172153,82.790840 9.589292,96.583977 
	C6.409845,98.443573 4.527849,100.832481 4.465271,104.500816 
	C4.391385,108.832108 4.338187,113.167160 4.436045,117.496964 
	C4.521633,121.283882 6.223085,122.671913 9.901177,120.823692 
	C15.556684,117.981827 21.643311,115.802231 26.857847,112.311996 
	C50.862164,96.245255 77.971176,85.639122 101.824783,69.333893 
	C110.259369,63.568394 119.030922,63.877666 127.744499,68.832237 
	C131.798294,71.137230 135.753159,73.616714 139.744308,76.031258 
	C212.743439,120.193863 287.573639,161.188126 361.316986,204.063797 
	C407.407349,230.861526 453.680359,257.344940 499.854340,283.998962 
	C505.172211,287.068726 510.194366,290.552582 514.564758,295.770538 
	C509.585724,300.272919 504.812012,304.341919 499.343201,307.532440 
	C482.939941,317.102203 466.530548,326.661804 450.090851,336.168732 
	C369.904694,382.539581 289.722229,428.916901 209.507889,475.238983 
	C175.891098,494.651978 142.313934,514.126648 109.645866,535.119141 
	C104.139755,538.657410 98.817345,539.306946 92.868080,535.626465 
	C69.900124,521.417542 45.538692,509.722778 21.885071,496.746399 
	C17.956278,494.591064 13.762189,492.902649 9.631368,491.137268 
	C6.111329,489.632904 4.207887,490.694824 4.304748,494.770142 
	C4.399756,498.767517 4.589940,502.791504 4.252679,506.762543 
	C3.874128,511.219696 5.742697,513.720947 9.537886,515.882568 
	C28.502390,526.684082 47.335365,537.716797 66.189827,548.710754 
	C67.972023,549.749939 70.248062,550.330811 71.011024,553.065735 
	C64.735161,559.017700 57.431614,563.677490 50.010124,568.047485 
	C36.666264,575.904785 23.123690,583.427429 9.596755,590.968994 
	C6.523356,592.682495 4.781748,595.034180 4.684374,598.475952 
	C4.533760,603.799561 4.351895,609.134338 4.541751,614.451538 
	C4.673522,618.141968 6.811902,619.537842 10.319690,617.862000 
	C13.169311,616.500610 16.081905,615.181152 18.700651,613.442627 
	C27.871286,607.354126 37.360615,601.842834 47.014385,596.550476 
	C62.791042,587.901306 78.318115,578.798096 94.007248,569.987549 
	C100.916077,566.107727 103.045738,566.414185 108.595078,571.726501 
	C113.574074,576.492798 119.193687,580.361267 125.215515,583.614990 
	C135.326477,589.078125 145.810959,593.898071 155.663040,599.784119 
	C211.735687,633.284546 268.671661,665.288391 325.203400,697.992371 
	C371.925140,725.021240 419.395599,750.771179 464.988861,779.731934 
	C470.988129,783.542725 471.118286,785.525818 465.342834,789.702087 
	C464.803894,790.091736 464.237915,790.449402 463.660187,790.779297 
	C437.626801,805.642578 411.702911,820.676880 385.964447,836.062805 
	C326.479828,871.621643 265.515289,904.635254 205.907684,940.009888 
	C163.934647,964.919067 121.233551,988.599609 79.176422,1013.370117 
	C68.539627,1019.634888 59.358688,1020.229736 49.081089,1013.296570 
	C37.593987,1005.547546 24.982121,999.767090 12.209996,994.418579 
	C9.975628,993.482849 7.795233,992.051453 4.460437,992.692505 
	C4.460437,999.911560 4.374017,1007.173401 4.513268,1014.430847 
	C4.554867,1016.598938 6.495917,1017.201477 8.316151,1017.824219 
	C12.731419,1019.334839 17.066833,1021.046143 20.000000,1025.000000 
z"/>
<path fill="#000000" opacity="1.000000" stroke="none" 
	d="
M1025.000000,587.000000 
	C1025.000000,722.354248 1025.000000,857.708435 1024.652588,993.629272 
	C1012.799744,999.279724 1001.554871,1004.890930 990.731445,1011.296875 
	C983.363037,1015.657776 975.507874,1019.268066 969.000000,1025.000000 
	C960.979065,1025.000000 952.958191,1025.000000 944.282104,1024.721436 
	C941.669678,1022.247437 938.927917,1021.361084 936.406555,1020.100464 
	C930.607056,1017.200806 924.177795,1015.609863 918.849609,1011.738098 
	C885.566040,987.552185 847.392883,971.769409 812.675903,950.009583 
	C801.584412,943.057739 788.786133,939.063599 777.563904,932.078674 
	C756.494019,918.964417 735.601135,905.524658 714.089783,893.168823 
	C653.722595,858.494812 593.607971,823.364014 532.221375,790.492004 
	C527.355530,787.886353 526.568787,783.720154 529.915955,779.277222 
	C531.505554,777.167175 533.751160,776.143005 536.096741,775.237488 
	C542.319641,772.835266 548.497925,770.298157 554.156372,766.741028 
	C587.451965,745.809753 622.179138,727.312195 656.378967,707.994568 
	C712.796387,676.127502 768.341003,642.784180 824.542114,610.563354 
	C837.751892,602.990051 852.246582,596.115112 859.113892,580.572632 
	C860.168945,581.177856 861.022583,581.428894 861.523865,581.993042 
	C865.354614,586.304626 869.018372,585.539673 873.234375,582.294312 
	C878.261047,578.424988 884.042603,575.718201 889.884338,573.259766 
	C900.714661,568.702148 910.532349,562.703552 919.460999,554.933167 
	C934.538452,541.811584 948.735046,541.182373 965.453064,552.321472 
	C977.804871,560.551270 990.522522,568.128174 1003.647034,575.056885 
	C1010.856995,578.863098 1017.888184,583.007874 1025.000000,587.000000 
z"/>
<path fill="#000000" opacity="1.000000" stroke="none" 
	d="
M1025.000000,468.531342 
	C1017.071228,470.673584 1009.928650,474.299377 1003.002014,478.272736 
	C992.595215,484.242554 982.331604,490.488861 972.934814,497.996735 
	C956.850647,510.847626 939.606567,511.808899 922.914124,500.636780 
	C881.966003,473.230469 838.649658,450.128937 795.017639,427.447510 
	C772.995544,415.999664 753.050110,400.964294 731.619568,388.407440 
	C713.766418,377.946716 694.509827,370.184479 676.899475,359.345306 
	C659.584473,348.687866 642.312866,338.016663 623.756775,329.551910 
	C615.664185,325.860321 609.243164,319.548828 602.266968,314.152649 
	C595.245972,308.721802 588.012817,303.732330 579.372681,301.160095 
	C576.855042,300.410522 574.709045,298.939270 574.329346,296.164581 
	C573.944885,293.355194 576.612549,292.742340 578.376892,291.718506 
	C636.741943,257.850281 694.902222,223.623245 754.113037,191.233994 
	C756.597778,189.874786 759.096130,188.530212 761.504333,187.043152 
	C807.001099,158.949554 853.976746,133.427826 900.520874,107.158356 
	C911.425720,101.003708 922.239441,94.899452 931.178833,85.859169 
	C937.476685,79.490295 943.027100,79.005859 951.061279,83.873825 
	C968.309021,94.324356 985.866577,104.227478 1003.493164,114.008110 
	C1010.325684,117.799339 1017.001343,121.925522 1024.638916,124.941093 
	C1025.000000,239.354233 1025.000000,353.708466 1025.000000,468.531342 
z"/>
<path fill="#000000" opacity="1.000000" stroke="none" 
	d="
M112.468658,1025.000000 
	C117.130661,1018.147766 124.313980,1013.972412 131.507843,1009.700562 
	C172.035873,985.634094 214.628204,965.219482 254.550369,940.080078 
	C259.781769,936.785828 265.018982,933.483459 269.558136,929.323120 
	C276.721741,922.757446 285.141418,918.618591 294.117828,915.300720 
	C302.744476,912.112183 310.878204,907.826965 318.604797,902.910706 
	C352.798157,881.153992 389.176819,863.249207 424.117767,842.813477 
	C445.541321,830.283569 467.481262,818.615417 488.038788,804.648071 
	C495.315369,799.704163 502.234497,800.340149 509.531769,804.565796 
	C544.275879,824.685120 579.075378,844.708801 613.873596,864.734558 
	C670.617249,897.389587 727.433167,929.919495 784.105347,962.698059 
	C818.137085,982.381592 851.955505,1002.433960 885.858826,1022.339355 
	C886.852905,1022.922974 887.722717,1023.718262 888.825195,1024.707520 
	C630.312439,1025.000000 371.624878,1025.000000 112.468658,1025.000000 
z"/>
<path fill="#000000" opacity="1.000000" stroke="none" 
	d="
M1025.000000,94.531342 
	C1006.325989,85.943382 988.944214,74.581490 968.990845,64.553329 
	C989.343018,54.936371 1006.431702,42.849888 1024.648315,32.019470 
	C1025.000000,52.687561 1025.000000,73.375122 1025.000000,94.531342 
z"/>
<path fill="#000000" opacity="1.000000" stroke="none" 
	d="
M1025.000000,555.531372 
	C1008.049011,546.880310 990.705566,538.429565 974.668579,527.163818 
	C975.345276,526.139282 975.564941,525.430542 976.039856,525.142090 
	C992.105042,515.383667 1008.194580,505.665222 1024.640259,495.970490 
	C1025.000000,515.687561 1025.000000,535.375122 1025.000000,555.531372 
z"/>
<path fill="#000000" opacity="1.000000" stroke="none" 
	d="
M740.740540,424.187164 
	C799.895142,458.624054 858.743225,492.864532 917.591370,527.105042 
	C916.560120,529.810120 914.321167,530.435181 912.535522,531.504761 
	C862.089600,561.720581 810.913086,590.680908 760.024597,620.135498 
	C691.546875,659.770996 622.952637,699.205444 554.390686,738.695374 
	C540.822632,746.510254 527.073303,754.014893 513.596375,761.982056 
	C503.634308,767.871277 494.599060,767.921936 484.889587,760.898438 
	C466.616028,747.680115 445.725616,738.848816 426.460968,727.256775 
	C388.201141,704.234924 349.477234,682.045105 309.993164,661.168274 
	C294.394989,652.920898 280.743958,641.074707 264.453766,634.219788 
	C241.047607,624.370605 220.471115,609.966187 199.275864,596.474792 
	C191.392746,591.457031 182.926331,587.488647 174.535889,583.418274 
	C159.489899,576.119263 145.298386,567.474182 132.118103,557.172241 
	C126.475258,552.761719 126.512924,548.393188 132.764862,545.904358 
	C163.136703,533.813599 190.397217,516.091248 218.174240,499.270233 
	C292.419098,454.309418 366.963165,409.881470 443.827911,369.451477 
	C472.581360,354.327454 500.246002,337.208984 527.585754,319.667480 
	C539.266174,312.173187 549.660400,312.132446 561.501465,319.132507 
	C621.011292,354.312714 681.412476,387.973511 740.740540,424.187164 
M398.727661,458.222351 
	C391.940674,467.339905 390.834229,477.309814 393.923096,488.076385 
	C395.917603,495.028290 398.541046,501.671173 402.736115,507.552032 
	C409.786591,517.435791 411.487579,528.366516 410.583374,540.244019 
	C409.698944,551.862122 406.166595,562.708069 402.670166,573.639465 
	C400.899170,579.176331 398.573792,584.597595 398.099976,590.465759 
	C397.602936,596.621948 400.316559,599.618164 406.421356,599.628845 
	C415.510162,599.644836 422.389618,595.627991 426.997986,587.781250 
	C429.810547,582.992188 431.498260,577.785522 432.730377,572.396729 
	C434.433014,564.949829 435.245544,557.275879 438.188812,550.145020 
	C438.982849,548.221252 439.322632,545.310364 441.759766,545.178589 
	C444.539215,545.028320 445.953217,547.716431 446.940491,549.972046 
	C449.611053,556.073364 451.939972,562.298828 453.342102,568.858032 
	C454.594269,574.715698 456.097321,580.516968 459.210144,585.760925 
	C463.814758,593.517944 469.995453,595.497009 478.289886,591.771179 
	C484.263062,589.088196 485.503265,584.850769 482.610840,576.000305 
	C479.249512,565.714905 475.646820,555.508301 472.309204,545.215454 
	C470.716614,540.303955 469.456146,535.234558 470.010895,530.016968 
	C470.743927,523.122437 472.184082,522.191223 479.104858,523.435181 
	C484.899902,524.476807 487.611420,521.834351 486.765808,515.935059 
	C486.377594,513.226440 485.012756,510.923798 483.577423,508.670837 
	C479.255310,501.886810 476.090179,494.582550 473.475708,486.990265 
	C471.145630,480.223999 468.837189,473.421570 465.968170,466.876648 
	C462.009491,457.845856 459.864044,448.667419 460.801636,438.737213 
	C461.676575,429.470734 457.932373,421.820007 451.342682,415.505951 
	C444.884552,409.317963 437.298126,406.469421 428.477325,409.171753 
	C419.806091,411.828217 415.176788,418.809296 414.623932,427.078308 
	C413.837006,438.847443 409.522552,448.176483 400.653534,455.656067 
	C400.033997,456.178558 399.644470,456.973785 398.727661,458.222351 
z"/>
</svg>